<mxfile host="app.diagrams.net" modified="2024-01-08T12:16:48.219Z" agent="Mozilla/5.0 (Windows NT 10.0; Win64; x64) AppleWebKit/537.36 (KHTML, like Gecko) Chrome/120.0.0.0 Safari/537.36" version="22.1.17" etag="sl6UN7eNjhAc_Y685nLh" type="github">
  <diagram name="第 1 页" id="d7wD6-6z9q_7P8Q03IT0">
    <mxGraphModel>
      <root>
        <mxCell id="0" />
        <mxCell id="1" parent="0" />
      </root>
    </mxGraphModel>
  </diagram>
</mxfile>
